
<svg width="97" style="filter:invert(1);" height="32" viewBox="0 0 97 32" fill="none" xmlns="http://www.w3.org/2000/svg">
<line x1="31.752" stroke-dasharray="59" y1="29.014" x2="90.752" y2="29.014" stroke="#F59E0B" stroke-width="3" stroke-linecap="round"/>
<path d="M11.934 20.74C13.906 20.74 15.4133 21.1593 16.456 21.998C17.5213 22.814 18.054 23.9927 18.054 25.534C18.054 27.6647 17.204 29.24 15.504 30.26C13.8267 31.3027 11.56 31.824 8.704 31.824C5.62133 31.824 3.4 31.4387 2.04 30.668C0.68 29.8973 0 28.8547 0 27.54C0 26.7693 0.249333 26.112 0.748 25.568C1.26933 25.024 2.09667 24.65 3.23 24.446C1.57533 23.834 0.748 22.6893 0.748 21.012C0.748 20.2187 0.986 19.5273 1.462 18.938C1.938 18.326 2.59533 17.884 3.434 17.612C1.62067 16.6147 0.714 15.062 0.714 12.954C0.714 11.118 1.428 9.70133 2.856 8.704C4.30667 7.684 6.33533 7.174 8.942 7.174C10.2567 7.174 11.4467 7.31 12.512 7.582C12.6027 6.766 12.8293 6.00667 13.192 5.304C13.5773 4.60133 14.0987 4.03467 14.756 3.604C15.436 3.15067 16.2633 2.924 17.238 2.924C17.306 2.924 17.3853 2.93533 17.476 2.958C17.5667 2.958 17.6687 2.958 17.782 2.958L18.258 6.834C18.0087 6.766 17.7367 6.732 17.442 6.732C16.6487 6.732 16.014 6.89067 15.538 7.208C15.062 7.52533 14.7447 7.93333 14.586 8.432C16.286 9.42933 17.136 10.9367 17.136 12.954C17.136 14.79 16.4107 16.2067 14.96 17.204C13.532 18.2013 11.526 18.7 8.942 18.7C7.76333 18.7 6.698 18.598 5.746 18.394C4.998 18.6207 4.624 19.0173 4.624 19.584C4.624 20.3547 5.25867 20.74 6.528 20.74H11.934ZM8.942 10.472C8.194 10.472 7.582 10.6873 7.106 11.118C6.65267 11.5487 6.426 12.1607 6.426 12.954C6.426 13.7247 6.65267 14.3253 7.106 14.756C7.582 15.1867 8.194 15.402 8.942 15.402C9.66733 15.402 10.268 15.1867 10.744 14.756C11.22 14.3253 11.458 13.7247 11.458 12.954C11.458 12.1607 11.22 11.5487 10.744 11.118C10.268 10.6873 9.66733 10.472 8.942 10.472ZM8.738 28.084C10.37 28.084 11.5827 27.914 12.376 27.574C13.192 27.2567 13.6 26.8487 13.6 26.35C13.6 26.01 13.464 25.738 13.192 25.534C12.9427 25.3527 12.5007 25.262 11.866 25.262H5.78C5.34933 25.262 4.998 25.3753 4.726 25.602C4.47667 25.8287 4.352 26.112 4.352 26.452C4.352 26.9733 4.73733 27.37 5.508 27.642C6.27867 27.9367 7.35533 28.084 8.738 28.084Z" fill="#1F2937"/>
<path d="M29.1574 13.736C29.1574 12.9427 28.9307 12.3193 28.4774 11.866C28.0467 11.39 27.4574 11.152 26.7094 11.152C25.9614 11.152 25.3154 11.3447 24.7714 11.73C24.2501 12.0927 23.8874 12.75 23.6834 13.702L18.7874 12.546C19.1047 10.914 19.9434 9.61067 21.3034 8.636C22.6634 7.66133 24.5787 7.174 27.0494 7.174C29.5427 7.174 31.4694 7.72933 32.8294 8.84C34.2121 9.928 34.9034 11.526 34.9034 13.634V19.856C34.9034 20.74 35.3001 21.182 36.0934 21.182C36.5014 21.182 36.8301 21.1367 37.0794 21.046L36.7394 24.344C36.0594 24.6613 35.2321 24.82 34.2574 24.82C33.1921 24.82 32.2741 24.616 31.5034 24.208C30.7327 23.7773 30.2114 23.1313 29.9394 22.27C29.4634 23.154 28.7041 23.8113 27.6614 24.242C26.6414 24.65 25.5534 24.854 24.3974 24.854C22.6521 24.854 21.2581 24.4573 20.2154 23.664C19.1954 22.848 18.6854 21.6807 18.6854 20.162C18.6854 18.938 19.0481 17.9293 19.7734 17.136C20.5214 16.32 21.6887 15.7533 23.2754 15.436L29.1574 14.212V13.736ZM24.3974 19.618C24.3974 20.1167 24.5787 20.4907 24.9414 20.74C25.3041 20.9893 25.7347 21.114 26.2334 21.114C27.0041 21.114 27.6841 20.8873 28.2734 20.434C28.8627 19.958 29.1574 19.2213 29.1574 18.224V17.272L26.4034 17.85C25.7234 17.986 25.2134 18.19 24.8734 18.462C24.5561 18.7113 24.3974 19.0967 24.3974 19.618Z" fill="#1F2937"/>
<path d="M48.9672 7.514H54.9512L48.8312 24.514H41.9292L35.8092 7.514H41.8952L45.3972 20.468L48.9672 7.514Z" fill="#1F2937"/>
<path d="M64.2929 24.854C61.4596 24.854 59.2156 24.0833 57.5609 22.542C55.9289 21.0007 55.1129 18.8247 55.1129 16.014C55.1129 14.1553 55.4869 12.5687 56.2349 11.254C57.0056 9.91667 58.0483 8.908 59.3629 8.228C60.7003 7.52533 62.2529 7.174 64.0209 7.174C65.8116 7.174 67.3303 7.52533 68.5769 8.228C69.8463 8.908 70.8096 9.86 71.4669 11.084C72.1243 12.2853 72.4529 13.668 72.4529 15.232C72.4529 15.6627 72.4303 16.082 72.3849 16.49C72.3623 16.8753 72.3396 17.204 72.3169 17.476H60.7229C60.8816 18.6547 61.2669 19.5047 61.8789 20.026C62.4909 20.5247 63.2956 20.774 64.2929 20.774C65.1543 20.774 65.8343 20.604 66.3329 20.264C66.8543 19.924 67.2396 19.448 67.4889 18.836L72.1129 20.366C71.7956 21.3407 71.2403 22.168 70.4469 22.848C69.6763 23.5053 68.7469 24.004 67.6589 24.344C66.5936 24.684 65.4716 24.854 64.2929 24.854ZM64.0209 11.22C62.1849 11.22 61.0969 12.274 60.7569 14.382H66.9789C66.7296 12.274 65.7436 11.22 64.0209 11.22Z" fill="#1F2937"/>
<path d="M77.8964 5.542C76.7177 5.542 75.8564 5.32667 75.3124 4.896C74.7911 4.44267 74.5304 3.74 74.5304 2.788C74.5304 1.81333 74.7911 1.11067 75.3124 0.679999C75.8564 0.226666 76.7177 0 77.8964 0C79.0524 0 79.9024 0.226666 80.4464 0.679999C80.9904 1.11067 81.2624 1.81333 81.2624 2.788C81.2624 3.74 80.9904 4.44267 80.4464 4.896C79.9024 5.32667 79.0524 5.542 77.8964 5.542ZM80.7864 7.514V24.514H75.0064V7.514H80.7864Z" fill="#1F2937"/>
<path d="M96.3929 7.514V11.628H91.3269V18.462C91.3269 19.278 91.5196 19.8673 91.9049 20.23C92.3129 20.57 92.8683 20.74 93.5709 20.74C94.1149 20.74 94.5796 20.6833 94.9649 20.57C95.3503 20.434 95.7129 20.2413 96.0529 19.992L96.6649 23.562C96.0983 23.9473 95.3729 24.2647 94.4889 24.514C93.6276 24.7407 92.7549 24.854 91.8709 24.854C89.9216 24.854 88.3803 24.446 87.2469 23.63C86.1363 22.7913 85.5696 21.386 85.5469 19.414V11.628H82.6229V7.514H85.5469V3.706L91.3269 2.108V7.514H96.3929Z" fill="#1F2937"/>
</svg>
