<svg width="18" height="18" viewBox="0 0 18 18" fill="none" xmlns="http://www.w3.org/2000/svg">
<path d="M9.00075 3.39675C10.7625 1.815 13.485 1.8675 15.1823 3.56775C16.8788 5.26875 16.9373 7.97775 15.3593 9.74475L8.99925 16.1138L2.64075 9.74475C1.06275 7.97775 1.122 5.26425 2.81775 3.56775C4.5165 1.86975 7.23375 1.81275 9.00075 3.39675V3.39675ZM14.1203 4.6275C12.9953 3.501 11.1803 3.45525 10.0028 4.51275L9.0015 5.41125L7.9995 4.5135C6.81825 3.4545 5.007 3.501 3.879 4.629C2.7615 5.7465 2.70525 7.53525 3.735 8.71725L9 13.9905L14.265 8.718C15.2955 7.53525 15.2393 5.74875 14.1203 4.6275V4.6275Z" fill="#1F2937"/>
</svg>
