<svg width="18" height="18" viewBox="0 0 18 18" fill="none" xmlns="http://www.w3.org/2000/svg">
<path d="M2.99963 4.8105L0.567383 2.379L1.62863 1.31775L4.06013 3.75H15.4916C15.6085 3.74999 15.7238 3.77731 15.8283 3.82977C15.9327 3.88224 16.0235 3.9584 16.0933 4.05217C16.1631 4.14594 16.21 4.25474 16.2303 4.36986C16.2506 4.48499 16.2437 4.60327 16.2101 4.71525L14.4101 10.7152C14.3638 10.8698 14.2689 11.0053 14.1395 11.1017C14.01 11.198 13.853 11.25 13.6916 11.25H4.49963V12.75H12.7496V14.25H3.74963C3.55072 14.25 3.35996 14.171 3.2193 14.0303C3.07865 13.8897 2.99963 13.6989 2.99963 13.5V4.8105ZM4.49963 5.25V9.75H13.1336L14.4836 5.25H4.49963ZM4.12463 17.25C3.82626 17.25 3.54012 17.1315 3.32914 16.9205C3.11816 16.7095 2.99963 16.4234 2.99963 16.125C2.99963 15.8266 3.11816 15.5405 3.32914 15.3295C3.54012 15.1185 3.82626 15 4.12463 15C4.423 15 4.70915 15.1185 4.92013 15.3295C5.13111 15.5405 5.24963 15.8266 5.24963 16.125C5.24963 16.4234 5.13111 16.7095 4.92013 16.9205C4.70915 17.1315 4.423 17.25 4.12463 17.25ZM13.1246 17.25C12.8263 17.25 12.5401 17.1315 12.3291 16.9205C12.1182 16.7095 11.9996 16.4234 11.9996 16.125C11.9996 15.8266 12.1182 15.5405 12.3291 15.3295C12.5401 15.1185 12.8263 15 13.1246 15C13.423 15 13.7091 15.1185 13.9201 15.3295C14.1311 15.5405 14.2496 15.8266 14.2496 16.125C14.2496 16.4234 14.1311 16.7095 13.9201 16.9205C13.7091 17.1315 13.423 17.25 13.1246 17.25Z" fill="#1F2937"/>
</svg>
